<svg width="360" height="360" viewBox="0 0 360 360" xmlns="http://www.w3.org/2000/svg">
  <defs>
    <clipPath id="leftHalf">
      <rect x="0" y="0" width="180" height="360"/>
    </clipPath>
    <clipPath id="rightHalf">
      <rect x="180" y="0" width="180" height="360"/>
    </clipPath>
  </defs>

  <!--
    10-tooth gear ring, now with curved rises/falls into each tooth and a
    rounded tip — a softer, more organic silhouette than a sharp trapezoid.
    Tooth count (10) and lack of inner-tooth notches remain deliberately
    different from Rust's own 8-tooth mark. Split blue/orange down the seam.
  -->
  <g stroke="none">
    <path clip-path="url(#leftHalf)" fill="#326CE5"
          d="M 160.2,77.9 Q 161.8,58.4 166.0,46.7 Q 180.0,38.0 194.0,46.7 Q 198.2,58.4 199.8,77.9
             L 224.0,85.7 Q 236.8,70.9 247.0,64.0 Q 263.5,65.1 269.7,80.4 Q 266.2,92.3 256.1,109.1
             L 271.0,129.6 Q 290.1,125.1 302.4,125.5 Q 315.1,136.1 311.1,152.1 Q 301.3,159.7 283.2,167.3
             L 283.2,192.7 Q 301.3,200.3 311.1,207.9 Q 315.1,223.9 302.4,234.5 Q 290.1,234.9 271.0,230.4
             L 256.1,250.9 Q 266.2,267.7 269.7,279.6 Q 263.5,294.9 247.0,296.0 Q 236.8,289.1 224.0,274.3
             L 199.8,282.1 Q 198.2,301.6 194.0,313.3 Q 180.0,322.0 166.0,313.3 Q 161.8,301.6 160.2,282.1
             L 136.0,274.3 Q 123.2,289.1 113.0,296.0 Q 96.5,294.9 90.3,279.6 Q 93.8,267.7 103.9,250.9
             L 89.0,230.4 Q 69.9,234.9 57.6,234.5 Q 44.9,223.9 48.9,207.9 Q 58.7,200.3 76.8,192.7
             L 76.8,167.3 Q 58.7,159.7 48.9,152.1 Q 44.9,136.1 57.6,125.5 Q 69.9,125.1 89.0,129.6
             L 103.9,109.1 Q 93.8,92.3 90.3,80.4 Q 96.5,65.1 113.0,64.0 Q 123.2,70.9 136.0,85.7 Z"/>
    <path clip-path="url(#rightHalf)" fill="#CE422B"
          d="M 160.2,77.9 Q 161.8,58.4 166.0,46.7 Q 180.0,38.0 194.0,46.7 Q 198.2,58.4 199.8,77.9
             L 224.0,85.7 Q 236.8,70.9 247.0,64.0 Q 263.5,65.1 269.7,80.4 Q 266.2,92.3 256.1,109.1
             L 271.0,129.6 Q 290.1,125.1 302.4,125.5 Q 315.1,136.1 311.1,152.1 Q 301.3,159.7 283.2,167.3
             L 283.2,192.7 Q 301.3,200.3 311.1,207.9 Q 315.1,223.9 302.4,234.5 Q 290.1,234.9 271.0,230.4
             L 256.1,250.9 Q 266.2,267.7 269.7,279.6 Q 263.5,294.9 247.0,296.0 Q 236.8,289.1 224.0,274.3
             L 199.8,282.1 Q 198.2,301.6 194.0,313.3 Q 180.0,322.0 166.0,313.3 Q 161.8,301.6 160.2,282.1
             L 136.0,274.3 Q 123.2,289.1 113.0,296.0 Q 96.5,294.9 90.3,279.6 Q 93.8,267.7 103.9,250.9
             L 89.0,230.4 Q 69.9,234.9 57.6,234.5 Q 44.9,223.9 48.9,207.9 Q 58.7,200.3 76.8,192.7
             L 76.8,167.3 Q 58.7,159.7 48.9,152.1 Q 44.9,136.1 57.6,125.5 Q 69.9,125.1 89.0,129.6
             L 103.9,109.1 Q 93.8,92.3 90.3,80.4 Q 96.5,65.1 113.0,64.0 Q 123.2,70.9 136.0,85.7 Z"/>
  </g>

  <!-- Inner disk -->
  <circle cx="180" cy="180" r="100" fill="#FDFDFD"/>
  <circle cx="180" cy="180" r="100" fill="none" stroke="#DDDDDD" stroke-width="2"/>

  <!-- LDAP directory tree -->
  <circle cx="180" cy="130" r="10" fill="#326CE5"/>
  <line x1="180" y1="140" x2="180" y2="168" stroke="#4A4A4A" stroke-width="4"/>

  <line x1="180" y1="168" x2="142" y2="198" stroke="#4A4A4A" stroke-width="4"/>
  <line x1="180" y1="168" x2="180" y2="198" stroke="#4A4A4A" stroke-width="4"/>
  <line x1="180" y1="168" x2="218" y2="198" stroke="#4A4A4A" stroke-width="4"/>

  <circle cx="142" cy="207" r="8" fill="#326CE5"/>
  <circle cx="180" cy="207" r="8" fill="#7A5548"/>
  <circle cx="218" cy="207" r="8" fill="#CE422B"/>

  <!-- Lock / auth motif -->
  <rect x="160" y="225" width="40" height="27" rx="4" fill="#7A5548"/>
  <path d="M 168 225 L 168 213 A 12 12 0 0 1 192 213 L 192 225"
        fill="none" stroke="#7A5548" stroke-width="6"/>

  <text x="180" y="342" text-anchor="middle" font-family="'DejaVu Sans Mono', monospace"
        font-size="20" fill="#333333" letter-spacing="0.5">k8s-ldap-auth-rs</text>
</svg>
